<?xml version="1.0" encoding="utf-8"?>
<!-- Generator: Adobe Illustrator 16.0.0, SVG Export Plug-In . SVG Version: 6.00 Build 0)  -->
<!DOCTYPE svg PUBLIC "-//W3C//DTD SVG 1.1//EN" "http://www.w3.org/Graphics/SVG/1.1/DTD/svg11.dtd">
<svg version="1.1" id="Layer_1" xmlns="http://www.w3.org/2000/svg" xmlns:xlink="http://www.w3.org/1999/xlink" x="0px" y="0px"
	 width="166px" height="235.999px" viewBox="0 0 166 235.999" enable-background="new 0 0 166 235.999" xml:space="preserve">
<path fill="#39B54A" d="M141.988,99.276v60.103c0,29.46-23.878,53.34-53.339,53.34h-1.365c-29.462,0-53.339-23.88-53.339-53.34
	V59.778c0-29.459,23.877-53.34,53.339-53.34h1.365c29.461,0,53.72,17.803,53.72,47.262L141.988,99.276z"/>
<path fill="#009444" d="M116.292,206.655c0,0-38.838,14.793-61.424-4.927c0,0,21.662-22.378,32.416-20.542
	C87.284,181.187,122.072,193.076,116.292,206.655z"/>
<path fill="#39B54A" d="M34.231,130.446v37.444c26.867,16.727-35.888-4.553-29.696-29.232
	C15.4,134.676,34.231,130.446,34.231,130.446z"/>
<path fill="#009444" d="M141.988,100.157l-29.696-16.253v56.431c0,0,4.615,29.108,29.145,27.556L141.988,100.157z"/>
<path fill="#009444" d="M33.944,56.582l-2.068,111.309c0,0,29.472-0.05,29.472-29.472c0-29.421,0-66.533,0-66.533
	S52.274,48.504,33.944,56.582z"/>
<path fill="#FFDE17" d="M159.803,109.579c0,0-5.848-57.714-18.19-54.997c0,0-35.322,11.49-26.987,27.452L159.803,109.579z"/>
<path fill="none" stroke="#000000" stroke-width="8.0009" stroke-miterlimit="10" d="M142.369,54.582
	c0-29.459-24.259-47.262-53.72-47.262h-1.365c-29.462,0-53.339,23.88-53.339,53.34v99.6c0,29.461,23.877,53.339,53.339,53.339h1.365
	c29.461,0,53.339-23.878,53.339-53.339v-60.103"/>
<path fill="none" stroke="#000000" stroke-width="8.0009" stroke-miterlimit="10" d="M34.605,54.582
	c16.195,0,29.324,13.127,29.324,29.322v54.754c0,16.194-13.129,29.32-29.324,29.32h-0.75c-16.195,0-29.321-13.126-29.321-29.32
	l29.696-10.882"/>
<path fill="none" stroke="#000000" stroke-width="8.0009" stroke-miterlimit="10" d="M141.613,167.979
	c-16.194,0-29.321-13.126-29.321-29.32V83.904c0-16.195,13.127-29.322,29.321-29.322h0.756
	c14.176,16.511,19.064,39.683,19.064,55.877l-49.142-26.555"/>
<circle cx="109.625" cy="49.915" r="6.667"/>
<circle cx="130.532" cy="43.247" r="5.12"/>
<path fill="none" stroke="#000000" stroke-width="8.0009" stroke-miterlimit="10" d="M60.682,232.125
	c-3.665-5.251-5.813-11.637-5.813-18.526c0-17.899,14.512-32.412,32.416-32.412c17.9,0,32.412,14.513,32.412,32.412
	c0,6.676-2.018,12.88-5.478,18.033"/>
</svg>
