<!DOCTYPE svg PUBLIC "-//W3C//DTD SVG 1.1//EN" "http://www.w3.org/Graphics/SVG/1.1/DTD/svg11.dtd">
<svg version="1.1" id="Layer_1" xmlns="http://www.w3.org/2000/svg" xmlns:xlink="http://www.w3.org/1999/xlink" x="0px" y="0px"
	 width="954px" height="438px" viewBox="0 0 954 438" enable-background="new 0 0 954 438" xml:space="preserve">
<rect x="12.459" y="8.511" fill="#41553D" width="333.761" height="333.761"/>
<rect x="26.906" y="22.958" fill="#FED5B0" width="304.867" height="304.867"/>
<rect x="179.081" y="22.958" fill="#D3E3BD" width="152.692" height="304.867"/>
<rect x="364.203" y="8.511" fill="#41553D" width="582.451" height="333.761"/>
<rect x="732.899" y="22.958" fill="#FED5B0" width="199.309" height="304.867"/>
<g>
	<path fill="#FFFBCC" d="M79.237,112.253c-2.519-17.777-7.339-93.345,93.298-93.509c128.008-0.208,90.438,114.586,90.438,125.488"/>
	<path fill="#FFD459" d="M256.573,121.407c0,0,21.805-23.167,38.613,18.625c0,0,4.088,29.981-25.893,18.624
		c0,0,92.669,144.456-71.319,170.803c0,0-122.65,19.532-129.465-82.676c0,0-12.265-46.789,20.896-82.675
		c0,0-39.066-7.269-33.161-35.433s34.523-9.54,34.523-9.54"/>
</g>
<rect x="34.871" y="115.825" transform="matrix(0.9986 0.0531 -0.0531 0.9986 7.7274 -9.3583)" fill="#99CAAB" width="289.975" height="49.64"/>
<g>
	<path fill="none" stroke="#41553D" stroke-width="10.7885" stroke-linecap="round" stroke-miterlimit="10" d="M268.839,115.501
		c0-10.902,17.716-96.757-96.303-96.757c-100.638,0-95.817,75.732-93.298,93.509"/>
	<path fill="none" stroke="#41553D" stroke-width="10.7885" stroke-linecap="round" stroke-miterlimit="10" d="M256.573,121.407
		c0,0,21.805-23.167,38.613,18.625c0,0,4.088,29.981-25.893,18.624c0,0,92.669,144.456-71.319,170.803
		c0,0-122.65,19.532-129.465-82.676c0,0-12.265-46.789,20.896-82.675c0,0-39.066-7.269-33.161-35.433s34.523-9.54,34.523-9.54"/>
</g>
<ellipse transform="matrix(0.9988 0.0495 -0.0495 0.9988 7.2211 -6.6776)" fill="#FFFBCC" cx="138.295" cy="142.308" rx="15.127" ry="14.075"/>
<path fill="#D25B46" d="M126.04,256.814c0,0,21.157,4.557,29.202-14.528c0,0-1.405-5.954,18.766-8.128c0,0,8.98,3.02,10.304,11.731
	c0,0-0.535-8.688,7.793-10.417c8.331-1.731,16.967,13.107,16.967,13.107s11.72,17.294,28.253,18.168c0,0-22.534,2.104-41.654,22.445
	c0,0-23.835,19.809-54.498,3.148c0,0-17.042-9.642-15.86-35.638C125.312,256.704,130.281,260.092,126.04,256.814z"/>
<ellipse fill="#FFFBCC" cx="209.125" cy="140.215" rx="13.656" ry="17.646"/>
<g>
	<path fill="none" stroke="#41553D" stroke-width="6.5156" stroke-linecap="round" stroke-miterlimit="10" d="M153.538,117.764
		c8.336,20.843-3.217,89.871-3.217,89.871s-0.795,16.033,20.249,17.077c21.042,1.045,21.535-19.021,21.535-19.021l3.051-61.483"/>
	<path fill="none" stroke="#41553D" stroke-width="6.2058" stroke-linecap="round" stroke-miterlimit="10" d="M154.277,142.946
		c-0.334,6.715-7.655,11.81-16.354,11.378c-8.697-0.432-15.479-6.226-15.146-12.941c0.333-6.715,7.746-13.042,16.413-13.905
		C147.384,126.661,154.61,136.231,154.277,142.946z"/>
	<path fill="none" stroke="#41553D" stroke-width="6.5156" stroke-linecap="round" stroke-miterlimit="10" d="M193,187.654
		c0,0,14.827-5.291,16.437,12.869c1.609,18.16-16.595,7.933-16.595,7.933"/>
	<path fill="none" stroke="#41553D" stroke-width="6.5156" stroke-linecap="round" stroke-miterlimit="10" d="M150.889,186.067
		c0,0-22.049-11.138-15.077,10.301c6.973,21.44,14.509,11.267,14.509,11.267"/>

		<path fill="none" stroke="#41553D" stroke-width="5.1187" stroke-linecap="round" stroke-linejoin="round" stroke-miterlimit="10" d="
		M126.04,256.814c0,0,21.157,4.557,29.202-14.528c0,0-1.405-5.954,18.766-8.128c0,0,8.98,3.02,10.304,11.731
		c0,0-0.535-8.688,7.793-10.417c8.331-1.731,16.967,13.107,16.967,13.107s11.72,17.294,28.253,18.168
		c0,0-22.534,2.104-41.654,22.445c0,0-23.835,19.809-54.498,3.148c0,0-17.042-9.642-15.86-35.638
		C125.312,256.704,130.281,260.092,126.04,256.814z"/>
	<path fill="none" stroke="#41553D" stroke-width="5.1187" stroke-linecap="round" stroke-miterlimit="10" d="M126.667,262.353
		c0,0,27.955,15.251,46.374,13.337c11.639-1.208,37.472-13.602,61.253-8.752"/>
	<path fill="none" stroke="#41553D" stroke-width="4.9323" stroke-linecap="round" stroke-miterlimit="10" d="M209.376,296.916
		c0,0-5.502,6.264-14.134,10.377c-8.631,4.112-14.042,2.331-14.042,2.331"/>
	<path fill="none" stroke="#41553D" stroke-width="5.1187" stroke-linecap="round" stroke-miterlimit="10" d="M119.857,238.894
		c0,0-9.128,2.1-11.002,12.298c-1.874,10.195-2.833,16.08,3.983,25.741"/>
	<path fill="none" stroke="#41553D" stroke-width="4.7753" stroke-linecap="round" stroke-miterlimit="10" d="M162.307,105.16
		c0,0,13.235,0,16.912,2.206"/>
	<path fill="none" stroke="#41553D" stroke-width="4.7753" stroke-linecap="round" stroke-miterlimit="10" d="M157.528,93.396
		c0.934-2,20.221,1.47,20.221,1.47s8.704,1.056,12.8-0.916"/>
	<path fill="none" stroke="#41553D" stroke-width="6.5156" stroke-linecap="round" stroke-miterlimit="10" d="M224.393,142.538
		c0,9.143-4.233,16.813-13.374,16.813c-9.144,0-16.555-7.411-16.555-16.554c0-9.142,5.312-18.178,14.455-18.178
		S224.393,133.396,224.393,142.538z"/>
</g>
<g>
	<path fill="#41553D" d="M116.444,106.686c0,0,20.728-13.778,34.494-12.177c0,0,5.58,16.422,1.386,16.676
		c-4.193,0.255-30.008,4.728-31.333,8.166C120.04,121.821,116.444,106.686,116.444,106.686z"/>
	<path fill="#41553D" d="M196.443,97.022c0,0,20.336,5.442,25.688,9.119c5.353,3.678,4.35,9.024,4.35,9.024
		s-17.881,3.593-33.344-3.881C187.504,103.083,196.443,97.022,196.443,97.022z"/>
	<path fill="#41553D" d="M150.606,144.845c-0.118,2.381-2.338,4.937-4.721,4.818c-2.382-0.118-5.662-2.498-5.544-4.88
		c0.118-2.38,3.241-4.652,5.624-4.534C148.347,140.368,150.725,142.462,150.606,144.845z"/>
	<path fill="#41553D" d="M223.195,145.524c0,0-3.268,5.452-7.298,5.452c-4.03,0-7.298-2.441-7.298-5.452
		c0-3.011,3.268-5.452,7.298-5.452C219.927,140.072,223.195,145.524,223.195,145.524z"/>
</g>
<path fill="none" stroke="#41553D" stroke-width="0.5678" stroke-miterlimit="10" d="M208.065,266.775"/>
<path fill="none" stroke="#41553D" stroke-width="0.5678" stroke-miterlimit="10" d="M208.065,266.775"/>
<path fill="#D25B46" d="M379.017,21.793h76.767v38.588h-31.2v20.732h29.147v37.357h-29.147v47.002h-45.567V21.793z"/>
<path fill="#D3E3BD" d="M537.627,21.793l55.421,143.68h-46.799l-4.721-13.547h-41.051l-4.721,13.547h-45.773l54.804-143.68H537.627z
	 M511.561,119.701h19.089l-9.647-27.915L511.561,119.701z"/>
<path fill="#41553D" d="M716.05,21.793h76.767v38.588h-31.198v14.575h29.146v37.356h-29.146v14.573h33.251v38.588H716.05V21.793z"/>
<path fill="#FFFFFF" d="M360.716,185.31h85.086v42.77h-34.58v22.976h32.306v41.406h-32.306v52.099h-50.506V185.31z"/>
<path fill="#D25B46" d="M540.262,175.102l64.48,167.17h-54.45l-5.492-15.764h-47.762l-5.493,15.764h-53.257l63.764-167.17H540.262z
	 M509.933,289.016h22.21l-11.226-32.479L509.933,289.016z"/>
<path fill="#FED5B0" d="M609.344,185.31h60.051c22.489,0,60.724,16.193,60.724,58.924c0,20.69-7.423,35.308-21.365,45.43
	l32.835,53.079h-56.899l-24.516-39.809h-2.249v39.809h-48.58V185.31z M657.924,261.326h6.747c8.321,0,14.843-7.647,14.843-16.866
	c0-9.898-7.646-16.646-14.618-16.646h-6.972V261.326z"/>
<path fill="#41553D" d="M913.339,185.31v156.743h-49.712v-21.049c0-13.435,0.226-27.317,1.793-40.755l-0.896-0.222
	c-3.582,6.492-9.852,16.122-16.122,24.854l-14.555,20.603h-2.24l-14.105-19.93c-6.27-8.731-13.212-19.257-16.571-25.526
	l-0.895,0.222c1.343,10.525,1.792,26.425,1.792,38.739v23.064h-49.712V185.31h40.083l40.082,56.204h0.895l40.083-56.204H913.339z"/>
<path fill="#FFFFFF" d="M732.568,21.793l-52.752,65.683l52.752,77.997H678.79l-12.11-17.652
	c-7.184-10.468-10.878-16.625-14.571-23.81l-0.822,0.205c0.205,5.542,0.205,17.242,0.205,27.095v14.162h-44.746V21.793h44.746v11.29
	c0,7.183,0,14.574-0.41,21.962l0.82,0.205c3.695-6.363,9.032-14.572,15.395-22.372l9.031-11.084H732.568z"/>
<text transform="matrix(1 0 0 1 8.2852 419.7734)" fill="#D25B46" font-family="'HelveticaNeue-Bold'" font-size="84.6046" letter-spacing="1">harmless</text>
<text transform="matrix(1 0 0 1 425.2378 416.71)" fill="#FFD459" font-family="'HelveticaNeue-Bold'" font-size="84.6046" letter-spacing="1">propaganda.</text>
</svg>
